<?xml version="1.0" encoding="UTF-8" standalone="no"?>
<!-- Created with Inkscape (http://www.inkscape.org/) -->

<svg
   width="210mm"
   height="297mm"
   viewBox="0 0 210 297"
   version="1.1"
   id="svg1"
   xml:space="preserve"
   inkscape:version="1.4.2 (ebf0e940d0, 2025-05-08)"
   sodipodi:docname="wasp.svg"
   xmlns:inkscape="http://www.inkscape.org/namespaces/inkscape"
   xmlns:sodipodi="http://sodipodi.sourceforge.net/DTD/sodipodi-0.dtd"
   xmlns="http://www.w3.org/2000/svg"
   xmlns:svg="http://www.w3.org/2000/svg"><sodipodi:namedview
     id="namedview1"
     pagecolor="#ffffff"
     bordercolor="#000000"
     borderopacity="0.25"
     inkscape:showpageshadow="2"
     inkscape:pageopacity="0.0"
     inkscape:pagecheckerboard="0"
     inkscape:deskcolor="#d1d1d1"
     inkscape:document-units="mm"
     inkscape:zoom="1.6391695"
     inkscape:cx="396.84731"
     inkscape:cy="561.25984"
     inkscape:window-width="3840"
     inkscape:window-height="2069"
     inkscape:window-x="0"
     inkscape:window-y="0"
     inkscape:window-maximized="1"
     inkscape:current-layer="layer1" /><defs
     id="defs1" /><g
     inkscape:label="Layer 1"
     inkscape:groupmode="layer"
     id="layer1"><path
       style="fill:#000000"
       d="m 124.2344,200.83457 c -1.35385,-1.47488 -2.56903,-2.55873 -2.98615,-2.66342 -1.12669,-0.28278 -2.06619,-1.08992 -3.3247,-2.85633 -2.2006,-3.08868 -3.62863,-6.55202 -3.62863,-8.80036 0,-0.60531 -0.16649,-1.65378 -0.36998,-2.32993 -0.47777,-1.58749 -0.30565,-10.11354 0.27351,-13.54838 0.597,-3.5407 0.49131,-4.04859 -1.05791,-5.08395 -1.45883,-0.97495 -1.90709,-1.06055 -2.07845,-0.39687 -0.0658,0.25466 0.0949,2.18942 0.35704,4.29947 0.61176,4.92443 0.64451,7.40834 0.0977,7.40834 -0.32086,0 -0.39652,-0.4181 -0.39502,-2.18281 0.001,-1.20055 -0.19629,-3.55204 -0.43846,-5.22553 -0.37214,-2.57165 -0.39102,-3.38557 -0.12195,-5.25742 0.17509,-1.2181 0.25847,-2.2746 0.18528,-2.34779 -0.0732,-0.0732 -0.3168,-0.0626 -0.54136,0.0236 -0.26656,0.10229 -0.41053,0.50397 -0.41475,1.15716 -0.004,0.55028 -0.13545,1.53628 -0.29309,2.19112 -0.15764,0.65485 -0.27738,2.20266 -0.26608,3.43958 0.0262,2.86418 0.67193,8.01703 1.01921,8.13279 0.14583,0.0486 0.4791,0.24484 0.74062,0.43606 0.61235,0.44777 0.86238,2.99011 0.38228,3.88717 -0.32578,0.60873 -0.34461,0.59214 -0.69609,-0.61328 -0.44589,-1.52918 -0.84246,-1.44755 -1.68267,0.34633 -0.33861,0.72295 -0.69408,1.18755 -0.78994,1.03246 -0.1144,-0.18512 -0.291,-0.14135 -0.51405,0.12741 -0.27524,0.33165 -0.27579,0.48648 -0.003,0.81529 0.25116,0.30264 0.2643,0.55505 0.0516,0.99219 -0.6413,1.31823 -1.87357,4.96998 -2.45223,7.26702 -0.33909,1.34607 -0.69508,2.4474 -0.79108,2.4474 -0.096,0 -0.30999,-0.26789 -0.47553,-0.59531 -0.25225,-0.49889 -0.27598,-0.39591 -0.14653,0.63579 0.12704,1.01255 0.036,1.43529 -0.51294,2.38125 -0.6886,1.18667 -1.59548,4.19285 -1.26487,4.19285 0.1026,0 0.33951,-0.14883 0.52645,-0.33073 0.27474,-0.26732 0.32293,-0.20391 0.25136,0.33073 -0.0654,0.48879 -0.4558,0.85826 -1.4954,1.41537 -0.77377,0.41466 -1.464448,0.69632 -1.534858,0.62591 -0.0704,-0.0704 -0.16092,-0.40966 -0.20115,-0.75391 -0.0402,-0.34425 -0.16606,-0.83454 -0.27962,-1.08952 -0.23828,-0.53506 0.0131,-1.78535 0.35893,-1.78535 0.12851,0 0.370838,0.38695 0.538498,0.8599 0.29197,0.82358 0.32099,0.83821 0.68734,0.3463 0.5479,-0.73568 0.48173,-1.18261 -0.1506,-1.01725 -0.66362,0.17354 -0.51012,-0.35053 0.56963,-1.94477 0.40766,-0.6019 0.98621,-1.73299 1.28567,-2.51354 0.29946,-0.78055 0.65031,-1.65731 0.77966,-1.94835 0.12935,-0.29104 0.36994,-1.11071 0.53464,-1.82149 0.16469,-0.71078 0.53182,-1.74784 0.81585,-2.30457 0.28402,-0.55673 0.5164,-1.31189 0.5164,-1.67813 0,-0.41773 0.24568,-0.82688 0.65923,-1.09784 0.50836,-0.3331 0.62231,-0.57905 0.4979,-1.07472 -0.11481,-0.45745 0.27059,-1.58783 1.33666,-3.92048 l 1.49799,-3.27771 -0.30327,-2.59899 c -0.7036,-6.02973 -0.58307,-9.38068 0.42657,-11.8594 0.12662,-0.31087 -0.49767,0.0933 -1.51335,0.97984 -0.95089,0.82996 -2.03474,1.64836 -2.40856,1.81869 -0.37382,0.17032 -1.05054,0.8261 -1.50382,1.45728 -0.45328,0.63119 -1.86187,2.03357 -3.13019,3.1164 -1.268318,1.08284 -2.841818,2.5269 -3.496658,3.20904 -0.65484,0.68213 -1.68277,1.58291 -2.28429,2.00173 -0.60152,0.41883 -1.16933,1.06298 -1.26181,1.43145 -0.15008,0.59796 -0.30264,0.67038 -1.41988,0.674 -0.68845,0.002 -1.41953,0.11027 -1.62461,0.2401 -0.45803,0.28996 -1.08233,0.0801 -1.08233,-0.36375 0,-0.18016 0.23813,-0.54306 0.52917,-0.80645 0.29104,-0.26339 0.52917,-0.74835 0.52917,-1.0777 0,-0.32934 0.0723,-0.78714 0.1606,-1.01732 0.17197,-0.44815 1.05998,-0.5782 1.20641,-0.17668 0.0485,0.13302 0.66026,0.17633 1.35944,0.0962 0.95671,-0.10956 1.23541,-0.23899 1.12639,-0.52308 -0.15923,-0.41495 0.0897,-0.66349 4.18806,-4.18063 1.526088,-1.30969 2.781988,-2.47055 2.790868,-2.57969 0.009,-0.10914 -1.10158,-0.19844 -2.467688,-0.19844 -2.21811,0 -2.6692,0.0867 -4.21649,0.81081 -3.59825,1.68382 -11.86537,2.54783 -16.54534,1.72917 -2.8949,-0.5064 -4.87505,-1.2893 -5.60363,-2.21554 -0.7802,-0.99186 -0.67564,-2.41069 0.27429,-3.72203 0.43657,-0.60266 0.79375,-1.14065 0.79375,-1.19553 0,-0.0549 -0.8632,-0.15615 -1.91823,-0.22502 -1.99884,-0.1305 -3.08219,-0.53113 -8.6651,-3.20439 -2.75826,-1.32074 -7.06566,-4.09199 -9.86851,-6.34911 -1.91668,-1.54348 -4.10503,-4.08402 -4.95794,-5.75586 -1.03732,-2.03332 -0.4085,-4.41649 1.62749,-6.16804 1.487,-1.27925 4.87389,-2.92224 7.24583,-3.51497 2.70463,-0.67586 9.37594,-0.60456 14.4198,0.15411 4.44664,0.66885 4.1343,0.59057 14.1552,3.5476 12.01431,3.54527 20.350488,5.87786 23.896798,6.6867 3.87013,0.8827 4.15819,0.80802 4.13116,-1.071 -0.0154,-1.0711 -0.14574,-1.3598 -0.944,-2.09111 -0.51336,-0.4703 -1.79337,-2.43662 -2.87195,-4.4118 -1.07021,-1.95985 -2.02649,-3.6229 -2.12508,-3.69566 -0.45375,-0.33486 -4.67007,-5.4759 -4.82686,-5.88546 -0.23845,-0.62289 -1.80891,-1.54997 -2.34006,-1.38139 -0.33488,0.10629 -0.48456,-0.15237 -0.69028,-1.19282 -0.337158,-1.70518 -0.0567,-1.97906 1.76945,-1.7279 1.55996,0.21455 1.71417,0.37748 1.27324,1.34522 -0.31082,0.68216 -0.27116,0.7678 0.71376,1.54118 2.27768,1.78849 3.54533,3.14606 4.35346,4.66227 0.61682,1.15727 1.11536,1.72488 1.83941,2.09426 1.07474,0.5483 2.04347,1.8412 2.78133,3.71207 0.53447,1.35517 3.03309,4.56184 3.44705,4.42385 0.65224,-0.21741 0.76828,-1.75946 0.25813,-3.43022 -0.62438,-2.04484 -0.5875,-3.72706 0.11659,-5.31878 0.59898,-1.35408 1.27432,-1.75269 2.96946,-1.75269 0.74904,0 1.0411,-0.11134 1.0411,-0.39688 0,-0.21828 -0.11971,-0.39687 -0.26602,-0.39687 -0.14631,0 -1.73863,-0.70747 -3.53848,-1.57215 -3.81472,-1.83266 -5.61385,-3.37387 -6.69484,-5.73507 -0.86587,-1.89131 -0.86503,-3.06125 0.003,-4.77511 1.08528,-2.14169 2.762,-3.10276 3.61663,-2.073 0.27188,0.3276 0.1507,0.65605 -0.69521,1.88427 -0.89611,1.30112 -1.02448,1.6767 -1.02448,2.99728 0,1.23992 0.13024,1.68052 0.7287,2.46514 0.898,1.17734 4.63959,3.72684 6.5155,4.43963 0.76434,0.29043 1.65965,0.84188 1.98959,1.22546 0.42665,0.49601 0.84186,0.69054 1.43774,0.67359 1.20866,-0.0344 1.03445,0.28787 -0.55122,1.01959 -1.34324,0.61985 -1.39383,0.68241 -1.53338,1.89656 -0.0794,0.69057 -0.26798,1.37923 -0.41911,1.53036 -0.15113,0.15113 -0.90288,0.37407 -1.67056,0.49543 -1.78439,0.28207 -2.31094,1.08341 -1.59316,2.42458 0.37486,0.70044 0.98574,0.64436 2.91387,-0.2675 2.38826,-1.12947 3.97575,-1.25576 7.00019,-0.55687 1.37669,0.31812 2.83149,0.54054 3.2329,0.49425 0.88514,-0.10206 1.07987,-0.77766 0.48558,-1.68466 -0.35297,-0.53869 -0.63921,-0.64845 -1.69113,-0.64845 -1.60731,0 -2.23523,-0.43536 -2.11769,-1.46826 0.0695,-0.61075 0.27336,-0.84034 0.93646,-1.05468 0.83015,-0.26833 0.79774,-0.28916 -1.57365,-1.01107 l -2.42127,-0.7371 2.38472,-1.25961 c 5.54978,-2.9314 8.30321,-5.89291 8.30321,-8.93069 0,-1.45383 -0.54064,-2.30128 -2.02191,-3.16937 -1.22357,-0.71705 -1.31314,-0.89038 -0.8792,-1.7012 0.7174,-1.34047 3.47598,-0.09 4.50899,2.04387 0.97664,2.01747 0.98737,3.70823 0.0364,5.74036 -1.09332,2.33637 -2.55644,3.66677 -5.73497,5.21478 -3.28463,1.59968 -3.87006,2.0189 -3.31638,2.37483 0.21758,0.13987 0.86663,0.33291 1.44235,0.42897 1.3837,0.2309 1.97705,0.88801 2.91091,3.22376 l 0.77706,1.94355 -0.60167,1.13416 -0.60167,1.13415 0.699,1.37942 c 0.67407,1.3302 0.71703,1.3631 1.20419,0.92222 0.75215,-0.68068 1.57634,-2.54705 1.58079,-3.57965 0.008,-1.86062 0.78649,-4.29551 1.80964,-5.66004 0.55015,-0.73372 1.28412,-1.84373 1.63106,-2.4667 0.38588,-0.6929 1.42342,-1.74584 2.67231,-2.71198 2.13866,-1.65445 2.34974,-1.76923 2.34974,-1.27774 0,0.16586 0.1843,0.43632 0.40955,0.60103 0.34609,0.25307 -0.0135,0.71325 -2.32131,2.97022 l -2.73085,2.67076 -0.3307,1.92854 c -0.18189,1.0607 -1.04566,3.78223 -1.91949,6.04784 -1.58844,4.11846 -1.58867,4.11944 -1.09175,4.78769 0.27336,0.36762 0.74541,0.70546 1.049,0.75075 0.74438,0.11105 3.62375,-0.75789 8.31105,-2.50812 2.92951,-1.09388 4.00371,-1.38799 4.35381,-1.19207 0.36344,0.20339 0.52664,0.13597 0.7486,-0.30923 0.21676,-0.43479 2.34544,-1.36621 9.00766,-3.94137 11.86058,-4.58451 14.66457,-5.54214 19.43944,-6.63898 5.71791,-1.31348 8.04657,-1.60108 11.48866,-1.4189 3.70834,0.19628 5.43328,0.6481 8.81102,2.30789 2.33366,1.14675 2.79622,1.48503 3.37045,2.46487 1.59608,2.7235 1.25032,3.77838 -2.60664,7.95277 -7.00257,7.5789 -9.55913,9.71841 -14.25482,11.92944 -1.34368,0.63269 -3.42532,1.4168 -4.62586,1.74246 -1.20055,0.32566 -2.18281,0.73358 -2.18281,0.90647 0,0.1729 0.22969,0.52224 0.51043,0.7763 0.28074,0.25407 0.70777,0.8778 0.94897,1.38607 0.36113,0.76105 0.38282,1.05864 0.12286,1.68623 -0.35326,0.85284 -2.10058,2.06789 -4.09581,2.84814 -2.85386,1.11602 -9.3927,2.07505 -9.3927,1.3776 0,-0.29915 0.22453,-0.3526 3.95763,-0.94209 2.84055,-0.44856 5.72697,-1.34222 7.49396,-2.32019 1.10335,-0.61067 1.46236,-1.45195 1.0816,-2.53461 -0.22502,-0.63985 -0.3584,-0.69045 -1.82032,-0.69045 -2.13204,0 -2.28128,0.58592 -0.40881,1.60505 1.25685,0.68406 1.88795,1.44232 0.87458,1.0508 -2.63164,-1.01676 -3.77621,-1.22048 -8.33192,-1.48301 -3.01236,-0.17359 -6.1571,-0.53517 -8.35334,-0.96046 -2.4322,-0.47098 -3.60716,-0.59714 -3.79664,-0.40766 -0.37334,0.37333 1.50137,1.42445 3.8793,2.17508 2.63494,0.83175 5.95312,2.40604 5.95312,2.82443 0,0.46437 -0.004,0.46346 -1.3697,-0.29977 -0.64447,-0.3602 -2.23705,-0.96008 -3.53905,-1.33308 -1.30201,-0.37299 -3.20961,-1.09031 -4.23911,-1.59404 -1.88999,-0.92477 -2.41073,-1.03732 -3.47685,-0.75151 l -0.58616,0.15715 0.53395,1.04663 c 0.50965,0.999 0.51125,1.03448 0.0352,0.77973 -0.27429,-0.1468 -0.65884,-0.45985 -0.85456,-0.69567 -0.54592,-0.65779 -1.55898,-1.10813 -5.96916,-2.65348 -3.63317,-1.27308 -4.09317,-1.37854 -4.3115,-0.9884 -0.21831,0.3901 -0.47585,0.33093 -2.41227,-0.55423 -3.7715,-1.724 -3.65363,-1.12345 0.33956,1.73007 3.50548,2.50501 4.3948,2.9307 3.35136,1.60418 -1.17295,-1.49117 -0.39784,-1.49378 1.36822,-0.005 1.1979,1.01008 1.27907,1.14643 0.86344,1.45035 -0.41485,0.30335 -0.37225,0.37097 0.44506,0.70635 0.4971,0.20398 1.96023,0.51819 3.2514,0.69825 2.10768,0.29391 2.49107,0.27859 3.75182,-0.14996 l 1.40425,-0.47732 4.24036,1.10684 c 2.3322,0.60877 4.66224,1.10684 5.17786,1.10684 0.76112,0 0.93751,0.0996 0.93751,0.52917 0,0.40593 -0.17639,0.52917 -0.75737,0.52917 -1.11592,0 -6.98832,-1.23567 -8.12046,-1.70871 -1.24261,-0.5192 -2.05268,-0.51566 -3.07584,0.0134 -0.47832,0.24735 -1.23785,0.38106 -1.83895,0.32374 -0.65153,-0.0621 -1.02405,0.0129 -1.02405,0.20636 0,0.45585 2.17817,2.37372 3.40906,3.00168 0.59423,0.30315 2.25936,1.32364 3.70029,2.26775 1.44094,0.94412 2.68471,1.71657 2.76395,1.71657 0.0792,0 0.18352,-0.26789 0.23174,-0.59531 0.0863,-0.58604 0.0952,-0.58413 0.5718,0.12283 0.59852,0.88784 0.94003,3.91206 0.44177,3.91206 -0.52089,0 -3.03026,-0.90058 -3.21482,-1.15376 -0.0913,-0.12525 -0.10983,-0.44256 -0.0412,-0.70514 0.0834,-0.31878 -0.12521,-0.63486 -0.62774,-0.95127 -0.41392,-0.26063 -1.13405,-0.79806 -1.60028,-1.1943 -0.46623,-0.39624 -1.69407,-1.21474 -2.72852,-1.8189 -1.03446,-0.60415 -3.07487,-2.10089 -4.53425,-3.32608 -1.97856,-1.66107 -2.84672,-2.22763 -3.4135,-2.22763 -0.58295,0 -0.91606,-0.23123 -1.42937,-0.99219 -0.72781,-1.07895 -3.92934,-3.64742 -4.06121,-3.25816 -0.0447,0.13185 0.20841,0.81469 0.5624,1.51743 1.073,2.13012 1.26967,3.7431 1.20999,9.92355 l -0.0554,5.73543 1.11738,1.84933 c 1.23354,2.04158 2.14161,4.22188 2.14161,5.14207 0,0.32846 0.30397,1.04454 0.67549,1.59128 0.78385,1.15353 2.23493,4.2973 2.23493,4.84197 0,0.20471 -0.10933,0.37221 -0.24295,0.37221 -0.13361,0 -0.41508,0.0661 -0.62548,0.14679 -0.26642,0.10224 -0.43237,-0.10234 -0.54669,-0.67395 -0.0903,-0.45141 -0.53251,-1.35613 -0.98272,-2.01049 -0.45021,-0.65437 -1.14936,-2.16679 -1.55366,-3.36095 -1.58129,-4.67061 -4.25059,-8.89045 -4.25059,-6.71968 0,0.33599 -0.16401,0.8352 -0.36448,1.10935 -0.31864,0.43576 -0.3888,0.0287 -0.55783,-3.23567 -0.11816,-2.28211 -0.0815,-4.79688 0.0943,-6.46717 0.42909,-4.07658 0.52248,-6.2076 0.28862,-6.58598 -0.31136,-0.50379 -1.49598,0.35717 -2.02878,1.47448 -0.38904,0.81581 -0.39441,1.16552 -0.0557,3.62507 0.34505,2.5056 0.40658,6.04315 0.27511,15.81903 -0.0235,1.74785 -0.20482,3.612 -0.42607,4.38046 -0.63019,2.18884 -2.79054,6.48811 -3.83988,7.64167 -0.53771,0.59111 -1.61075,1.96772 -2.38454,3.05912 -1.77662,2.50587 -3.15104,3.96875 -3.72876,3.96875 -0.24736,0 -1.47701,-1.1191 -2.73255,-2.4869 z m 4.21279,-0.22508 0.93716,-1.38906 -1.327,-0.08 c -0.72986,-0.044 -1.9153,-0.044 -2.63432,0 l -1.30731,0.08 1.19884,1.38906 c 0.65936,0.76399 1.42308,1.38907 1.69716,1.38907 0.30575,0 0.86046,-0.53679 1.43547,-1.38907 z m 0.48354,-2.99826 c 2.06544,-0.5352 2.72424,-1.01956 4.14856,-3.05007 0.85274,-1.21567 1.02402,-1.60144 0.64666,-1.45651 -3.58432,1.3766 -9.51924,1.88061 -13.18856,1.12003 -1.15055,-0.23849 -2.12432,-0.40121 -2.16394,-0.3616 -0.16154,0.16154 1.78233,2.59325 2.39269,2.99317 1.72669,1.13137 5.4009,1.47113 8.16459,0.75498 z m 0.50747,-4.88691 c 4.10907,-0.91528 5.45668,-1.81913 6.25143,-4.19285 0.33714,-1.00693 0.41083,-3.73083 0.10094,-3.73083 -0.1101,0 -0.61611,0.12141 -1.12448,0.2698 -4.60042,1.34286 -14.31305,1.52327 -18.97773,0.35251 l -0.68072,-0.17085 0.1746,1.6925 c 0.25297,2.45227 0.65345,3.67084 1.47707,4.49446 1.71054,1.71054 8.0205,2.34518 12.77889,1.28526 z m 0.91544,-8.19582 c 4.90285,-0.7205 5.60311,-0.92688 5.91332,-1.74279 0.13913,-0.36594 0.25296,-1.90776 0.25296,-3.42625 v -2.76091 h -0.73784 c -0.40581,0 -2.87636,0.18637 -5.4901,0.41415 -3.49451,0.30454 -6.15575,0.36738 -10.05515,0.23744 -6.34259,-0.21135 -6.0527,-0.34958 -6.03775,2.87887 0.0117,2.52603 0.53329,4.04295 1.47109,4.27833 3.21238,0.80625 9.6595,0.85945 14.68347,0.12116 z m 10.38872,-8.17417 c 0.15125,-0.28261 0.30242,-2.72334 0.34004,-5.49011 0.0564,-4.14608 -0.0147,-5.30292 -0.42379,-6.89952 -0.27034,-1.05503 -0.5865,-1.91823 -0.70258,-1.91823 -0.11609,0 -0.14927,0.92274 -0.0737,2.05052 0.0807,1.20581 -0.0397,3.40438 -0.29233,5.33697 -0.3763,2.87838 -0.38226,5.90808 -0.014,7.09845 0.15549,0.50257 0.85964,0.39506 1.16637,-0.17808 z m -47.853358,-0.47428 c 0.93603,-0.55293 0.9828,-0.869 0.1286,-0.869 -1.03113,0 -1.43056,0.25215 -1.28445,0.81084 0.16315,0.6239 0.19539,0.62552 1.15585,0.0582 z m 40.191338,-0.0759 c 3.26804,-0.39754 3.49414,-0.59592 3.29066,-2.88729 -0.0851,-0.95827 -0.2741,-2.37061 -0.42002,-3.13853 -0.43872,-2.30891 -0.10459,-2.24047 -10.74084,-2.20011 -10.68429,0.0405 -9.82987,-0.21547 -10.39224,3.11394 -0.46064,2.72706 -0.3734,4.86934 0.2173,5.33637 0.36304,0.28704 1.91221,0.32944 7.99097,0.21872 4.14735,-0.0755 8.67172,-0.27493 10.05417,-0.4431 z m -42.885248,-7.53843 c 3.15977,-0.7061 4.81342,-1.43189 6.04202,-2.65185 0.84583,-0.83988 1.12448,-1.32188 1.12448,-1.94513 0,-1.07779 -0.53399,-1.08605 -3.2248,-0.0499 -2.75263,1.05995 -5.01048,2.22483 -7.28044,3.75619 -2.06488,1.393 -2.19953,1.45186 -2.18525,0.95528 0.0329,-1.14218 2.40957,-2.58691 7.72955,-4.69858 1.56435,-0.62095 2.84427,-1.23968 2.84427,-1.37496 0,-0.13529 -0.20836,-0.18477 -0.46302,-0.10996 -0.25466,0.0748 -0.93927,0.21469 -1.52135,0.31085 -0.58209,0.0962 -3.08896,0.69127 -5.57083,1.32245 -3.49624,0.88916 -5.30021,1.19994 -8.01016,1.37997 -2.86251,0.19017 -3.62861,0.32976 -4.21876,0.76872 -1.16629,0.86751 -1.08173,1.54368 0.25631,2.04962 0.6266,0.23693 1.67505,0.54116 2.3299,0.67606 1.84115,0.37929 9.85942,0.12271 12.14808,-0.38874 z m 44.406608,-1.85693 c 0.50993,-0.17333 0.39999,-2.26116 -0.16814,-3.19282 -0.86082,-1.41165 -1.76746,-1.59793 -5.08439,-1.04462 -2.28597,0.38134 -3.48562,0.43821 -5.85574,0.27763 -4.80849,-0.32578 -5.13753,-0.30973 -5.94693,0.28993 -1.03042,0.76343 -1.92866,2.16374 -1.92866,3.00672 0,0.39079 0.0495,0.76013 0.11002,0.82077 0.14278,0.14307 18.43875,-0.01 18.87384,-0.15761 z m -59.674528,-1.03246 c 0.68519,-0.63085 1.17136,-1.22143 1.08038,-1.31241 -0.29273,-0.29274 -2.34203,-0.17601 -2.67013,0.15209 -0.52849,0.5285 -0.37895,2.35653 0.18962,2.31783 0.0849,-0.006 0.71495,-0.52665 1.40013,-1.15751 z m 28.109678,0.0497 c 1.88723,-0.96158 9.60373,-6.11976 11.21949,-7.49977 0.0515,-0.044 0.0515,-0.1981 0,-0.34239 -0.21256,-0.5951 -3.82368,1.4903 -5.82041,3.36124 -1.11239,1.04232 -2.21372,1.89512 -2.4474,1.89512 -0.7663,0 -0.44529,-0.78465 0.62344,-1.52387 1.08648,-0.7515 1.32286,-1.12196 0.71588,-1.12196 -0.45196,0 -8.132378,3.14335 -8.596538,3.51828 -0.31849,0.25727 -1.36972,2.10561 -1.36972,2.40833 0,0.24549 1.99912,0.28862 3.294008,0.0711 0.7203,-0.12102 1.79186,-0.46574 2.38125,-0.76605 z m 11.96405,-1.00153 c 0.86906,-1.82683 0.81208,-1.94643 -1.24251,-2.60815 -1.03859,-0.3345 -1.93483,-0.5617 -1.99165,-0.50488 -0.26911,0.26911 0.52774,2.17189 1.25772,3.00328 0.91879,1.04645 1.51508,1.07956 1.97644,0.10975 z m -34.175768,-0.12666 c 2.40994,-0.18415 17.24179,-3.76955 22.364778,-5.40639 1.81489,-0.57987 4.4165,-1.35289 5.78135,-1.71782 1.36486,-0.36493 2.53976,-0.72172 2.61091,-0.79287 0.0712,-0.0712 -0.16994,-0.20448 -0.53575,-0.29629 -0.89935,-0.22572 -5.36662,0.23106 -13.155658,1.34519 -6.47299,0.92588 -6.48626,0.92912 -9.24703,2.25782 -1.86306,0.89665 -3.95422,1.62984 -6.41194,2.24812 -2.00596,0.50463 -4.08066,1.17326 -4.61042,1.48583 -0.88756,0.52367 -0.9261,0.59545 -0.4906,0.9139 0.25995,0.19008 0.72127,0.29579 1.02516,0.23492 0.30389,-0.0609 1.50503,-0.18345 2.6692,-0.27241 z m 57.079678,-1.70629 c 0.80654,-0.72605 0.83481,-0.80754 0.42468,-1.2237 -0.80967,-0.82155 -2.60332,-0.39159 -2.60332,0.62405 0,0.44545 0.74102,1.3775 1.09517,1.3775 0.12067,0 0.60823,-0.35003 1.08347,-0.77785 z m -56.387568,-1.23334 c 3.11184,-0.96064 5.771,-1.8536 5.90925,-1.98438 0.40749,-0.38547 -2.46207,-0.2701 -4.3524,0.17499 -3.0334,0.71422 -6.456,2.08673 -7.80521,3.12999 -0.52639,0.40703 -0.52623,0.40922 0.0306,0.41759 0.3079,0.005 3.10587,-0.77756 6.21771,-1.73819 z m 20.077678,0.28204 c 1.23693,-0.50914 2.28865,-1.04275 2.33716,-1.18578 0.0485,-0.14304 0.35226,-0.26007 0.67501,-0.26007 0.32276,0 1.77135,-0.46912 3.2191,-1.04248 l 2.63228,-1.04249 -1.42381,-0.0159 c -0.9099,-0.0101 -2.24687,0.26214 -3.70417,0.75434 -1.2542,0.4236 -2.69708,0.85299 -3.2064,0.95419 -1.20608,0.23966 -4.762498,1.70632 -4.762498,1.96405 0,0.24771 1.0521,0.76911 1.5875,0.78674 0.21828,0.007 1.408908,-0.40351 2.645828,-0.91265 z m 17.56779,-0.40583 c 0.26622,-0.24508 -2.29466,-3.18665 -3.01751,-3.46609 -0.4932,-0.19066 -4.31983,2.33373 -4.09327,2.70029 0.1138,0.18414 2.88281,0.90586 4.35966,1.13632 0.8399,0.13107 2.44042,-0.0845 2.75112,-0.37052 z m -40.346818,-1.41436 c 4.42152,-1.40224 6.68759,-1.89481 9.81445,-2.13336 3.98768,-0.30423 8.41951,-0.91181 16.883698,-2.31468 7.02066,-1.16362 8.3204,-1.31544 8.51843,-0.99502 0.32814,0.53094 0.61198,0.15184 0.39594,-0.52883 -0.16672,-0.5253 -0.28539,-0.5501 -1.6778,-0.35067 -2.30812,0.33058 -5.79567,0.19208 -11.1383,-0.44232 -2.839498,-0.33717 -5.382148,-0.50843 -6.085418,-0.40989 -0.6644,0.0931 -2.93441,0.6313 -5.04447,1.196 -2.11005,0.5647 -4.55083,1.16719 -5.42396,1.33886 -2.201,0.43277 -2.95032,0.88144 -3.8553,2.30845 -0.78782,1.24227 -1.56865,1.93279 -1.56865,1.38723 0,-0.15759 0.28414,-0.84811 0.63143,-1.5345 0.55471,-1.09632 0.58388,-1.29221 0.24011,-1.612 -0.23706,-0.22052 -0.33922,-0.63664 -0.25915,-1.05552 0.3266,-1.70847 -0.77892,-2.00977 -3.92053,-1.06851 -2.02369,0.60632 -3.74355,0.77962 -7.45928,0.75162 l -2.43303,-0.0183 -0.68726,1.08868 c -0.90086,1.42707 -1.21495,2.2868 -1.02053,2.79345 0.20333,0.52989 2.94269,1.92976 4.98636,2.54814 2.38201,0.72076 4.55195,0.49459 9.10326,-0.9488 z m 57.851028,0.46229 c 1.22884,-0.53371 2.23229,-1.03972 2.22988,-1.12448 -0.002,-0.0848 -1.16019,-0.76808 -2.57285,-1.5185 l -2.56847,-1.36441 -1.40173,2.29045 -1.40173,2.29045 0.99801,0.16089 c 1.9434,0.3133 2.50648,0.22563 4.71689,-0.7344 z m 37.1206,-0.17367 c 0.23187,-0.27939 -0.20339,-0.51727 -2.15042,-1.17526 -6.57047,-2.22045 -15.73067,-3.66016 -25.12915,-3.94954 -5.72251,-0.17619 -6.92446,0.12657 -2.64584,0.66647 1.41883,0.17904 5.67531,1.08285 9.45886,2.00847 8.20454,2.00718 8.07186,1.9838 13.6128,2.39863 6.01779,0.45054 6.51924,0.45429 6.85375,0.0512 z m -46.39572,-0.47091 c 1.32132,-0.36092 2.65631,-1.35076 3.17528,-2.35433 0.7915,-1.5306 0.9087,-1.49408 -5.46363,-1.70272 -5.92392,-0.19396 -6.80906,-0.3294 -7.76582,-1.18826 -0.54761,-0.49157 -1.72258,-0.89514 -1.71612,-0.58944 0.002,0.0955 0.65686,0.94205 1.4552,1.88118 0.79835,0.93912 1.45155,1.80083 1.45155,1.91491 0,0.31815 1.88765,1.43799 3.19593,1.89597 1.37593,0.48167 4.16919,0.552 5.66761,0.14269 z m 28.06889,-0.0397 c 0.10859,-0.10859 0.13689,-0.25797 0.0629,-0.33197 -0.509,-0.509 -14.38363,-3.51535 -14.71134,-3.18764 -0.29924,0.29924 0.87453,0.88888 3.23433,1.62473 7.25696,2.26294 7.08966,2.22366 9.18721,2.1569 1.11621,-0.0355 2.11832,-0.15343 2.22691,-0.26202 z m 21.54049,-0.80996 c 0,-0.82098 -6.56483,-2.5014 -10.58334,-2.70905 -1.52797,-0.0789 -3.12663,-0.19858 -3.55258,-0.26583 -3.19013,-0.50366 4.59633,1.50011 10.82862,2.78666 2.93483,0.60584 3.3073,0.62703 3.3073,0.18822 z M 64.251812,156.25475 c 0.45684,-0.85712 0.83061,-1.80846 0.83061,-2.1141 0,-0.30564 -0.53578,-1.33829 -1.19062,-2.29479 -0.65485,-0.9565 -1.19063,-1.88684 -1.19063,-2.06744 0,-0.18059 -0.35456,-0.88744 -0.78792,-1.57077 l -0.78792,-1.24243 h -4.24484 c -4.14202,0 -4.27033,0.0169 -5.29749,0.69662 -0.57896,0.38314 -1.05266,0.79231 -1.05266,0.90926 0,0.35724 3.56113,3.42538 6.01574,5.18293 2.11681,1.51568 6.32343,4.05906 6.71354,4.05909 0.0889,1e-5 0.53535,-0.70126 0.99219,-1.55837 z m 118.081918,-0.59322 c 2.17905,-0.83685 5.52305,-2.8309 8.20999,-4.89566 1.53036,-1.176 8.41787,-7.97449 8.41787,-8.30908 0,-0.0791 -0.62508,-0.44581 -1.38906,-0.81488 -0.98125,-0.47404 -1.58326,-0.61448 -2.05052,-0.47837 -0.3638,0.10598 -2.05194,0.20455 -3.75141,0.21906 -3.4973,0.0298 -3.72441,0.13577 -4.1952,1.95651 -0.49742,1.92375 -1.11138,3.36793 -1.88694,4.43856 -0.92183,1.27255 -0.93922,1.83224 -0.0883,2.84347 0.36381,0.43235 0.66146,0.91774 0.66146,1.07863 0,0.5936 -0.67563,0.26067 -1.88169,-0.92725 l -1.23841,-1.21979 -1.6811,0.22036 c -0.9246,0.1212 -1.85968,0.1958 -2.07796,0.16577 -0.21829,-0.03 -1.55696,-0.23513 -2.97483,-0.45578 -3.35373,-0.52192 -5.73272,-0.52064 -6.48102,0.003 -1.15337,0.80785 -1.24608,2.60231 -0.23542,4.55671 0.73332,1.41809 0.0193,1.1883 -0.97887,-0.31501 -0.52161,-0.7856 -1.16195,-1.48924 -1.42298,-1.56364 -0.26103,-0.0744 -1.76596,-0.33134 -3.34429,-0.57098 -1.57833,-0.23963 -3.4238,-0.61456 -4.10104,-0.83317 -0.68292,-0.22045 -2.70438,-0.4575 -4.53864,-0.53225 -3.18763,-0.12989 -3.44131,-0.0992 -7.01146,0.84878 -2.73876,0.72721 -4.4295,1.01734 -6.48723,1.11318 -2.66605,0.12419 -5.2035,-0.17652 -6.07281,-0.71967 -0.72516,-0.45309 -0.0969,-0.54352 2.30927,-0.33242 3.38201,0.29672 6.34922,-0.002 9.72161,-0.97876 4.65274,-1.34758 6.35699,-1.35454 12.86821,-0.0525 3.00294,0.60047 5.69555,1.09176 5.98359,1.09176 0.28804,0 0.84181,-0.25022 1.23061,-0.55604 0.78689,-0.61897 2.27488,-3.36546 2.27488,-4.19891 0,-0.70658 -0.49086,-0.6952 -4.69463,0.10885 -8.69625,1.66331 -9.77827,1.76066 -12.29196,1.10593 -1.30799,-0.34069 -1.77455,-0.30411 -6.95822,0.54552 -3.05593,0.50088 -6.39351,1.0936 -7.41685,1.31716 -2.00669,0.43839 -3.06398,0.40773 -3.229,-0.0936 -0.14553,-0.44213 1.09165,-0.721 7.33857,-1.65413 7.55709,-1.12884 9.28043,-1.53358 11.46724,-2.6932 1.04182,-0.55245 4.15641,-2.14813 6.92131,-3.54594 2.76489,-1.39782 5.26305,-2.77288 5.55145,-3.05568 0.61118,-0.59931 -0.80479,-0.14032 -13.75354,4.45824 -7.43245,2.63952 -12.50981,4.31766 -16.53646,5.46553 l -1.4552,0.41484 0.0171,1.63307 0.0172,1.63307 0.95831,0.33177 c 0.52707,0.18248 1.9481,0.41185 3.15785,0.5097 1.20975,0.0979 3.80689,0.41312 5.77142,0.70057 1.96453,0.28746 5.95313,0.62855 8.86354,0.75798 2.91042,0.12943 6.54183,0.35478 8.0698,0.50078 1.52796,0.14601 3.65501,0.26947 4.72677,0.27437 1.22401,0.006 2.84743,0.25319 4.36562,0.66579 4.8053,1.30597 7.60197,1.2658 11.32141,-0.16265 z m -53.0237,-0.92557 c 0.77491,-0.20767 0.75253,-0.59179 -0.19844,-3.40511 -0.76328,-2.25808 -1.06051,-4.22607 -0.55746,-3.69094 0.12996,0.13824 0.66699,1.67143 1.19339,3.40707 0.52641,1.73565 1.00747,3.20609 1.06903,3.26764 0.0616,0.0616 0.25403,0.0241 0.42773,-0.0833 0.22374,-0.13828 0.27997,-0.93926 0.1929,-2.74754 -0.11371,-2.36133 -0.18686,-2.64078 -0.97749,-3.73391 -0.99299,-1.37292 -1.44504,-1.59575 -2.46,-1.21265 -0.59593,0.22494 -0.82403,0.19292 -1.18303,-0.16608 -0.64973,-0.64972 -0.0995,-1.78721 0.86448,-1.78721 h 0.69756 l -0.47357,-0.7276 c -0.98715,-1.51668 -2.73364,-2.16912 -4.43886,-1.65822 -1.32322,0.39644 -3.6151,2.50616 -3.6151,3.32777 0,0.58182 -1.26548,2.37868 -1.50592,2.13824 -0.17715,-0.17715 1.22452,-2.84298 1.95144,-3.71141 0.48455,-0.5789 0.59883,-0.94682 0.47259,-1.52157 -0.11559,-0.5263 -0.053,-0.8016 0.20457,-0.90046 0.20409,-0.0783 2.14834,-0.23462 4.32055,-0.34736 l 3.94948,-0.20497 -1.32291,-0.62681 c -2.59577,-1.22989 -7.65811,-0.94994 -8.96654,0.49585 -0.40087,0.44296 -0.38515,0.49529 0.23346,0.77715 0.8918,0.40633 0.83942,0.84272 -0.10115,0.84272 -1.12617,0 -1.77776,0.7079 -2.53568,2.75477 -0.76718,2.07192 -0.69519,2.63734 0.40845,3.20806 0.75945,0.39272 0.775,0.44344 0.775,2.52803 0,1.17 0.13896,2.38692 0.30881,2.70428 0.27708,0.51773 0.4062,0.28495 1.25677,-2.26586 0.52138,-1.56357 1.06539,-2.87286 1.20892,-2.90951 0.54392,-0.1389 0.38951,0.83637 -0.49438,3.12265 -0.64495,1.66824 -0.83458,2.46049 -0.64391,2.69023 0.18895,0.22767 1.59533,0.34949 4.67483,0.40491 2.42252,0.0436 4.46411,0.10432 4.53687,0.13495 0.0728,0.0306 0.40019,-0.0161 0.72761,-0.10385 z m -36.640578,-2.34682 c 3.76022,-0.79892 5.81225,-0.82762 9.397878,-0.13145 3.10394,0.60264 6.86166,0.68413 9.93998,0.21554 2.19972,-0.33484 2.55354,-0.61286 2.08598,-1.63905 -0.20624,-0.45264 -0.83245,-0.76331 -2.61447,-1.29704 -3.15395,-0.94463 -15.113938,-4.09766 -17.277418,-4.55486 -0.95403,-0.20162 -4.27566,-1.15649 -7.38139,-2.12194 -3.10573,-0.96545 -5.71717,-1.68498 -5.80319,-1.59896 -0.25657,0.25657 0.25257,0.58028 1.81175,1.15192 0.81085,0.29728 3.96992,1.74169 7.02016,3.2098 5.09042,2.45007 5.72988,2.69049 7.78615,2.92738 1.23214,0.14195 4.468478,0.51005 7.191878,0.81801 5.62435,0.63599 7.65684,1.0263 7.81498,1.50073 0.17247,0.5174 -2.05217,0.41128 -7.98067,-0.38072 -6.792988,-0.90748 -7.975818,-0.9209 -9.123798,-0.10347 l -0.87778,0.62504 -5.46197,-0.30313 c -7.94932,-0.44117 -9.04622,-0.44564 -9.29823,-0.0379 -0.42701,0.69092 0.66323,2.42836 1.93718,3.08714 1.52064,0.78636 2.03714,0.78985 4.91242,0.0332 1.54412,-0.40635 4.20837,-1.03646 5.92056,-1.40024 z m 50.465058,1.71983 c 0,-0.16114 -1.00858,-0.24833 -2.57969,-0.22302 -2.15229,0.0347 -2.36051,0.0716 -1.25677,0.22302 2.09742,0.28768 3.83646,0.28768 3.83646,0 z m -70.234338,-1.32453 c 2.2736,-0.29192 4.24023,-0.46501 4.37028,-0.38464 0.19585,0.12105 1.1524,-0.23178 1.54106,-0.56842 0.0567,-0.0491 -0.20044,-0.48714 -0.57136,-0.97344 -0.78587,-1.03032 -1.33691,-1.22209 -6.58601,-2.29199 -4.12502,-0.84078 -5.63388,-1.305 -7.01388,-2.15788 -0.98643,-0.60965 -2.20367,-0.51469 -2.20367,0.17192 0,0.45799 1.67786,3.88093 2.41188,4.92037 0.55479,0.78565 2.44402,1.81434 3.33269,1.81465 0.32185,1.2e-4 2.44541,-0.23864 4.71901,-0.53057 z M 117.0815,151.4538 c 0.47467,-0.5245 0.47253,-0.55331 -0.0821,-1.10795 -0.51073,-0.51074 -0.63859,-0.53245 -1.24008,-0.21054 -0.82634,0.44224 -0.85283,0.90563 -0.0826,1.44512 0.7512,0.52616 0.81961,0.51999 1.40479,-0.12663 z m 16.68155,-0.3387 0.71222,-0.61263 -0.62514,-1.08621 c -0.60609,-1.0531 -0.6105,-1.1024 -0.14445,-1.61737 0.33066,-0.36538 0.42149,-0.71768 0.29102,-1.12875 -0.18524,-0.58364 -0.19843,-0.58563 -0.56504,-0.0851 -0.20645,0.28187 -0.617,1.30732 -0.91232,2.2788 -0.41806,1.37521 -0.47192,1.88783 -0.24325,2.3151 0.37469,0.70011 0.6106,0.68998 1.48696,-0.0638 z m -39.608708,-1.47852 c 0.20055,-0.12702 0.27698,-0.37276 0.16986,-0.54609 -0.2477,-0.40079 -8.93658,-4.58234 -10.63503,-5.11815 -2.20259,-0.69484 -3.18349,-0.74818 -6.24147,-0.33943 -4.80662,0.64248 -8.26372,0.95106 -10.65497,0.95106 -2.16454,0 -2.60527,0.16891 -1.90874,0.73152 0.61465,0.49648 6.13706,2.13716 8.66634,2.57472 1.38177,0.23904 3.03345,0.66449 3.67041,0.94544 0.94022,0.41471 1.81139,0.51518 4.63021,0.534 1.90965,0.0128 4.06741,0.1159 4.79501,0.22923 1.85716,0.28926 7.06989,0.31544 7.50838,0.0377 z m 21.454128,-0.75313 c -0.0219,-0.46354 -0.72236,-1.43888 -0.8662,-1.20614 -0.2521,0.4079 0.10948,1.40458 0.50955,1.40458 0.20131,0 0.3618,-0.0893 0.35665,-0.19844 z m 68.70735,-0.89193 c 0.38266,-0.31758 3.00411,-6.38952 3.00411,-6.95827 0,-0.6235 -0.87785,-0.51579 -2.86607,0.35165 -0.97028,0.42332 -4.14539,1.50428 -7.05581,2.40214 -2.91042,0.89785 -5.50384,1.83853 -5.76315,2.09041 -0.25932,0.25187 -0.54242,0.89499 -0.6291,1.42916 l -0.15761,0.97122 5.92077,0.0806 c 6.22659,0.0848 7.05085,0.0447 7.54686,-0.36694 z m -52.08215,-0.55005 c 0.54811,-0.5481 0.31516,-1.61107 -0.71318,-3.25437 -0.84817,-1.35539 -1.12117,-1.59999 -1.8671,-1.67292 -1.52623,-0.14922 -1.4917,0.27037 0.23342,2.83598 0.89082,1.32485 1.71186,2.40881 1.82452,2.40881 0.11267,0 0.34772,-0.14287 0.52234,-0.3175 z m 34.71334,-2.04673 c 7.10523,-1.46894 9.71837,-2.1318 13.17267,-3.34141 3.0474,-1.06712 4.39281,-1.66532 4.59493,-2.04299 0.28095,-0.52495 0.24364,-0.53019 -2.19246,-0.30796 -1.36305,0.12434 -5.39623,0.23177 -8.96262,0.23873 l -6.48436,0.0126 -4.89273,2.36471 c -4.30554,2.08091 -8.20002,4.23266 -8.20002,4.53061 0,0.28599 1.86997,0.60762 2.91042,0.50059 0.65485,-0.0674 5.17922,-0.94708 10.05417,-1.95493 z m -115.144158,0.72055 c 1.13209,-1.47298 1.53125,-2.81429 1.15699,-3.88789 l -0.28531,-0.81843 h 1.17112 c 1.70854,0 7.79339,-1.03299 8.74738,-1.48499 0.44984,-0.21314 1.20112,-0.78292 1.66952,-1.26618 l 0.85162,-0.87865 -2.72785,-0.17162 c -3.3217,-0.20898 -5.47776,0.19417 -8.30119,1.55218 -1.50807,0.72535 -1.96729,1.07404 -1.96729,1.49376 0,0.35479 -0.12755,0.49859 -0.36233,0.40849 -1.1925,-0.4576 -3.28226,2.43336 -2.84116,3.93046 0.75987,2.57901 1.53712,2.88116 2.8885,1.12287 z m 10.07121,-0.74535 c 1.65272,-0.77308 1.68307,-0.80601 1.5183,-1.64731 -0.32994,-1.6846 -1.34446,-2.53937 -2.63034,-2.21614 -0.7936,0.19948 -3.08793,2.98909 -3.08793,3.75451 0,1.37837 1.40807,1.41489 4.19997,0.10894 z m -5.06596,-0.84774 c 0.48644,-0.83434 1.11841,-1.6422 1.40438,-1.79525 1.0866,-0.58153 0.56388,-0.85508 -1.26599,-0.66252 -1.8589,0.19562 -2.50925,0.55726 -3.10243,1.72517 -0.72484,1.42714 -0.74267,1.84053 -0.0909,2.10847 0.33753,0.13877 0.96399,0.22729 1.39213,0.19671 0.64537,-0.0461 0.92963,-0.31493 1.66287,-1.57258 z m 58.643118,0.36429 c 0.35361,-0.39074 0.37553,-0.54469 0.10715,-0.75255 -0.87924,-0.68099 -0.99886,-0.6448 -0.99886,0.30212 0,1.05474 0.23664,1.17427 0.89171,0.45043 z m -38.369388,-1.93973 c 3.12806,-0.34029 3.66736,-0.6776 2.52783,-1.58106 -1.89038,-1.49875 -8.08516,-3.48141 -10.95536,-3.5063 -1.90624,-0.0165 -3.61802,0.81031 -4.55383,2.19964 -0.78332,1.16295 -0.76319,1.65115 0.11095,2.69 l 0.71649,0.8515 4.64132,-0.17071 c 2.55272,-0.0939 5.93339,-0.31127 7.5126,-0.48307 z m 35.758808,-1.42665 c -0.48189,-1.5915 -1.99001,-4.33861 -2.58938,-4.71669 -0.68507,-0.43213 -1.12062,0.14641 -0.707,0.93912 0.42502,0.81458 3.53629,5.23359 3.62343,5.14645 0.0369,-0.0369 -0.11027,-0.65291 -0.32705,-1.36888 z m 87.23126,-0.57416 c 0.21922,-0.25466 0.67008,-0.95795 1.00192,-1.56285 0.74629,-1.36041 0.60031,-2.10382 -0.69452,-3.53705 -1.09689,-1.21412 -1.7484,-1.31018 -3.49892,-0.51588 -0.97061,0.44042 -1.13223,0.61914 -1.01158,1.11867 0.74489,3.08423 1.02517,3.59928 2.43133,4.46786 0.98636,0.60926 1.26848,0.61392 1.77177,0.0293 z m -63.78793,-2.3247 c 0.63653,-1.80161 0.98421,-4.62061 0.56987,-4.62061 -0.60795,0 -1.92142,4.20761 -1.92142,6.15513 0,0.74452 0.044,0.79338 0.39703,0.4404 0.21837,-0.21836 0.6479,-1.10708 0.95452,-1.97492 z m 55.67577,1.71385 c 0.21553,-0.34874 -0.8615,-1.92756 -2.21963,-3.25373 -0.84507,-0.8252 -1.18437,-0.98768 -1.91549,-0.9173 -0.71354,0.0687 -0.99925,0.28364 -1.45099,1.09166 -0.8302,1.48498 -0.5897,2.19143 0.90874,2.66931 2.27641,0.72598 4.36875,0.90941 4.67737,0.41006 z m 3.30537,-0.20207 0.59548,-0.48218 -0.5071,-1.70063 -0.50709,-1.70062 -2.17574,-0.0768 c -1.19665,-0.0423 -2.17573,0.0263 -2.17573,0.15232 0,0.12604 0.30434,0.51508 0.67632,0.86453 0.37198,0.34946 1.03278,1.17389 1.46845,1.83206 0.69026,1.04281 1.23811,1.50649 1.86081,1.57496 0.093,0.0102 0.43709,-0.19838 0.7646,-0.46359 z m -33.47748,-1.43672 c 0.17986,-0.18737 0.1375,-0.2332 -0.13229,-0.14312 -0.21828,0.0729 -1.20055,0.39777 -2.18281,0.72197 -0.98227,0.3242 -1.78594,0.69625 -1.78594,0.82678 0,0.27546 3.70698,-0.99511 4.10104,-1.40563 z m 18.90151,0.1783 c 1.66458,-0.0894 3.29599,-0.265 3.62535,-0.39023 0.55383,-0.21056 1.41794,-1.47147 1.41794,-2.06905 0,-0.49434 -1.38788,-1.90129 -2.54368,-2.57863 -1.37507,-0.80585 -2.3443,-0.8489 -4.93914,-0.21939 -3.98015,0.96559 -10.3518,4.33274 -9.60743,5.07711 0.1007,0.1007 1.15946,0.26123 2.35281,0.35673 2.14211,0.17143 3.76578,0.14186 9.69415,-0.17654 z m 12.93173,-3.78068 c 1.54132,0.007 3.48864,-0.61281 3.48864,-1.11106 0,-0.35116 -2.14963,-1.21005 -4.18996,-1.67412 -2.44443,-0.55597 -7.12315,-0.56916 -8.42848,-0.0238 l -0.95977,0.40102 0.59743,0.63593 c 1.26898,1.35076 4.69295,2.33809 6.7989,1.96052 0.60179,-0.1079 1.81375,-0.19274 2.69324,-0.18853 z m -54.23727,-4.10147 c 0.1426,-0.71916 -0.33711,-0.48435 -0.87541,0.42849 l -0.50707,0.8599 0.64847,-0.42849 c 0.35665,-0.23567 0.68696,-0.62262 0.73401,-0.8599 z m 11.56942,67.84579 c -0.25608,-0.28296 -0.84008,-0.55085 -1.29778,-0.59531 -0.69258,-0.0673 -0.84654,-0.20607 -0.91772,-0.82725 -0.0846,-0.73856 -0.0786,-0.74186 0.57466,-0.31383 l 0.6602,0.43258 -0.52688,-1.80284 c -0.31142,-1.06558 -0.77722,-2.01923 -1.13905,-2.332 -0.69134,-0.5976 -1.08382,-1.59882 -0.71589,-1.82622 0.37586,-0.23228 1.62936,0.87532 1.62936,1.43971 0,0.27563 0.52654,1.09399 1.17009,1.81859 0.99964,1.12554 1.2177,1.26009 1.49692,0.92366 0.21314,-0.25682 0.41689,-0.30372 0.58577,-0.13484 0.16888,0.16888 0.0677,0.58313 -0.29094,1.19095 -0.42994,0.72869 -0.49955,1.10752 -0.31912,1.73663 0.27453,0.95723 -0.1759,1.10092 -0.90962,0.29017 z m -26.32149,-62.15842 c -0.41438,-0.77427 -0.35902,-0.87107 0.44517,-0.77854 0.52144,0.06 0.7276,0.23263 0.7276,0.60927 0,0.70846 -0.82081,0.82693 -1.17277,0.16927 z m -2.20067,0.0488 c -0.564,-0.14739 -0.59033,-0.44091 -0.0777,-0.86633 0.48217,-0.40017 0.93763,-0.14021 0.93763,0.53516 0,0.52364 -0.0499,0.54285 -0.8599,0.33117 z m 0.8599,-1.52731 c 0,-0.77974 0.72174,-1.20822 1.0847,-0.64396 0.37687,0.58587 0.15212,1.15567 -0.49209,1.24758 -0.48353,0.069 -0.59261,-0.0421 -0.59261,-0.60362 z m 20.15608,-8.41062 c 0.0668,-0.47034 0.23017,-0.57838 0.77828,-0.51467 0.43967,0.0511 0.75154,-0.07 0.85159,-0.33073 0.10985,-0.28625 -5.6e-4,-0.41137 -0.36301,-0.41137 -0.60903,0 -0.63227,-0.0934 -0.19675,-0.79074 0.25574,-0.40952 0.25574,-0.58732 0,-0.84307 -0.46175,-0.46175 -0.401,-0.74744 0.15894,-0.74744 0.26567,0 0.76268,0.29766 1.10445,0.66146 0.66178,0.70443 1.34887,0.93346 0.79375,0.26458 -0.27404,-0.3302 -0.24078,-0.39687 0.19801,-0.39687 0.44925,0 0.55447,0.23932 0.71014,1.61531 0.20379,1.80122 0.23646,1.69135 -0.57742,1.94152 -0.48569,0.1493 -0.59531,0.0813 -0.59531,-0.36938 v -0.55237 l -1.04779,0.53454 c -1.39842,0.71342 -1.92235,0.69588 -1.81488,-0.0608 z"
       id="path1" /></g></svg>
